<svg width="28" height="28" viewBox="0 0 28 28" fill="none" xmlns="http://www.w3.org/2000/svg">
<circle cx="14" cy="14" r="14" fill="white"/>
<circle cx="14" cy="14" r="14" stroke="#622E2A"/>
<path d="M15.1995 16.6465C14.4959 16.648 13.8109 16.4191 13.2483 15.9946C13.1649 15.9326 13.1094 15.8399 13.0938 15.7368C13.0782 15.6337 13.1039 15.5286 13.1652 15.4445C13.1751 15.4304 13.6214 14.9793 13.6214 14.9793C13.6832 14.9128 13.7664 14.8704 13.8563 14.8596C13.9461 14.8487 14.037 14.8701 14.1127 14.9199C14.4738 15.1788 14.9145 15.301 15.3567 15.2648C15.7989 15.2285 16.214 15.0362 16.5285 14.7219L18.6403 12.6007C19.2794 11.9587 19.4371 10.9362 18.9317 10.1839C18.3573 9.31564 17.1015 8.99038 16.1062 9.86857C15.9992 9.96331 14.8546 11.0847 14.8546 11.0847C14.8193 11.1202 14.7774 11.1484 14.7313 11.1676C14.6851 11.1868 14.6357 11.1967 14.5857 11.1967C14.5358 11.1967 14.4863 11.1868 14.4402 11.1676C14.3941 11.1484 14.3521 11.1202 14.3168 11.0847L13.8945 10.6605C13.823 10.5884 13.7828 10.4908 13.7828 10.389C13.7828 10.2872 13.823 10.1896 13.8945 10.1175L14.9841 9.02432C16.1737 7.82513 18.1194 7.62715 19.4188 8.70614C20.0818 9.25372 20.5013 10.0433 20.5849 10.9014C20.6686 11.7595 20.4097 12.6159 19.8651 13.2823C19.7975 13.3643 17.483 15.6962 17.483 15.6962C16.8769 16.3039 16.0559 16.6455 15.1995 16.6465Z" fill="#622E2A"/>
<path d="M15.1995 16.6465C14.4959 16.648 13.8109 16.4191 13.2483 15.9946C13.1649 15.9326 13.1094 15.8399 13.0938 15.7368C13.0782 15.6337 13.1039 15.5286 13.1652 15.4445C13.1751 15.4304 13.6214 14.9793 13.6214 14.9793C13.6832 14.9128 13.7664 14.8704 13.8563 14.8596C13.9461 14.8487 14.037 14.8701 14.1127 14.9199C14.4738 15.1788 14.9145 15.301 15.3567 15.2648C15.7989 15.2285 16.214 15.0362 16.5285 14.7219L18.6403 12.6007C19.2794 11.9587 19.4371 10.9362 18.9317 10.1839C18.3573 9.31564 17.1015 8.99038 16.1062 9.86857C15.9992 9.96331 14.8546 11.0847 14.8546 11.0847C14.8193 11.1202 14.7774 11.1484 14.7313 11.1676C14.6851 11.1868 14.6357 11.1967 14.5857 11.1967C14.5358 11.1967 14.4863 11.1868 14.4402 11.1676C14.3941 11.1484 14.3521 11.1202 14.3168 11.0847L13.8945 10.6605C13.823 10.5884 13.7828 10.4908 13.7828 10.389C13.7828 10.2872 13.823 10.1896 13.8945 10.1175L14.9841 9.02432C16.1737 7.82513 18.1194 7.62715 19.4188 8.70614C20.0818 9.25372 20.5013 10.0433 20.5849 10.9014C20.6686 11.7595 20.4097 12.6159 19.8651 13.2823C19.7975 13.3643 17.483 15.6962 17.483 15.6962C16.8769 16.3039 16.0559 16.6455 15.1995 16.6465Z" stroke="#622E2A"/>
<path d="M13.4048 11.9502C14.1103 11.9477 14.7973 12.1777 15.3602 12.605C15.4435 12.6668 15.499 12.7592 15.5146 12.8621C15.5302 12.9649 15.5045 13.0698 15.4433 13.1536C15.4334 13.1692 14.9872 13.6203 14.9872 13.6203C14.9254 13.6858 14.8427 13.7276 14.7536 13.7384C14.6644 13.7493 14.5742 13.7285 14.4987 13.6797C14.1377 13.4205 13.6969 13.2981 13.2547 13.3344C12.8124 13.3706 12.3972 13.5631 12.0828 13.8777L9.9711 15.9989C9.32491 16.6395 9.16582 17.6619 9.67264 18.4157C10.2456 19.2825 11.5028 19.6092 12.4981 18.731C12.6051 18.6363 13.7497 17.5134 13.7497 17.5134C13.785 17.478 13.8269 17.4498 13.873 17.4306C13.9192 17.4114 13.9686 17.4015 14.0186 17.4015C14.0685 17.4015 14.118 17.4114 14.1641 17.4306C14.2103 17.4498 14.2522 17.478 14.2875 17.5134L14.7098 17.9377C14.7808 18.0104 14.8205 18.1081 14.8205 18.2099C14.8205 18.3117 14.7808 18.4094 14.7098 18.4821L13.6202 19.5753C12.4292 20.7745 10.4835 20.9724 9.18412 19.8934C8.52047 19.3465 8.1002 18.5572 8.01573 17.6991C7.93125 16.8409 8.18947 15.9842 8.73362 15.3173C8.8012 15.2339 11.1157 12.9033 11.1157 12.9033C11.4159 12.6008 11.7726 12.3608 12.1655 12.1973C12.5583 12.0337 12.9795 11.9497 13.4048 11.9502Z" fill="#622E2A"/>
<path d="M13.4048 11.9502C14.1103 11.9477 14.7973 12.1777 15.3602 12.605C15.4435 12.6668 15.499 12.7592 15.5146 12.8621C15.5302 12.9649 15.5045 13.0698 15.4433 13.1536C15.4334 13.1692 14.9872 13.6203 14.9872 13.6203C14.9254 13.6858 14.8427 13.7276 14.7536 13.7384C14.6644 13.7493 14.5742 13.7285 14.4987 13.6797C14.1377 13.4205 13.6969 13.2981 13.2547 13.3344C12.8124 13.3706 12.3972 13.5631 12.0828 13.8777L9.9711 15.9989C9.32491 16.6395 9.16582 17.6619 9.67264 18.4157C10.2456 19.2825 11.5028 19.6092 12.4981 18.731C12.6051 18.6363 13.7497 17.5134 13.7497 17.5134C13.785 17.478 13.8269 17.4498 13.873 17.4306C13.9192 17.4114 13.9686 17.4015 14.0186 17.4015C14.0685 17.4015 14.118 17.4114 14.1641 17.4306C14.2103 17.4498 14.2522 17.478 14.2875 17.5134L14.7098 17.9377C14.7808 18.0104 14.8205 18.1081 14.8205 18.2099C14.8205 18.3117 14.7808 18.4094 14.7098 18.4821L13.6202 19.5753C12.4292 20.7745 10.4835 20.9724 9.18412 19.8934C8.52047 19.3465 8.1002 18.5572 8.01573 17.6991C7.93125 16.8409 8.18947 15.9842 8.73362 15.3173C8.8012 15.2339 11.1157 12.9033 11.1157 12.9033C11.4159 12.6008 11.7726 12.3608 12.1655 12.1973C12.5583 12.0337 12.9795 11.9497 13.4048 11.9502Z" stroke="#622E2A"/>
</svg>
